<svg xmlns="http://www.w3.org/2000/svg" xmlns:xlink="http://www.w3.org/1999/xlink" width="500" zoomAndPan="magnify" viewBox="0 0 375 149.999998" height="200" preserveAspectRatio="xMidYMid meet" version="1.0"><defs><g/><clipPath id="ad2e17be2e"><rect x="0" width="353" y="0" height="113"/></clipPath><clipPath id="33a4d0dd97"><path d="M 296.632812 117.363281 L 312.769531 117.363281 L 312.769531 133.496094 L 296.632812 133.496094 Z M 296.632812 117.363281 " clip-rule="nonzero"/></clipPath><clipPath id="f6d04f2661"><path d="M 295.734375 116.460938 L 313.664062 116.460938 L 313.664062 134.390625 L 295.734375 134.390625 Z M 295.734375 116.460938 " clip-rule="nonzero"/></clipPath><clipPath id="e1324d2f41"><path d="M 272.277344 117.363281 L 288.414062 117.363281 L 288.414062 133.496094 L 272.277344 133.496094 Z M 272.277344 117.363281 " clip-rule="nonzero"/></clipPath><clipPath id="a913986e01"><path d="M 271.378906 116.460938 L 289.308594 116.460938 L 289.308594 134.390625 L 271.378906 134.390625 Z M 271.378906 116.460938 " clip-rule="nonzero"/></clipPath><clipPath id="14a4836e76"><path d="M 320.703125 117.363281 L 336.839844 117.363281 L 336.839844 133.496094 L 320.703125 133.496094 Z M 320.703125 117.363281 " clip-rule="nonzero"/></clipPath><clipPath id="f9c01a9525"><path d="M 319.804688 116.460938 L 337.734375 116.460938 L 337.734375 134.390625 L 319.804688 134.390625 Z M 319.804688 116.460938 " clip-rule="nonzero"/></clipPath><clipPath id="e465c359a7"><path d="M 248.210938 117.363281 L 264.34375 117.363281 L 264.34375 133.496094 L 248.210938 133.496094 Z M 248.210938 117.363281 " clip-rule="nonzero"/></clipPath><clipPath id="559554db44"><path d="M 247.308594 116.460938 L 265.238281 116.460938 L 265.238281 134.390625 L 247.308594 134.390625 Z M 247.308594 116.460938 " clip-rule="nonzero"/></clipPath></defs><g transform="matrix(1, 0, 0, 1, 3, 13)"><g clip-path="url(#ad2e17be2e)"><g fill="#162124" fill-opacity="1"><g transform="translate(0.55129, 89.042429)"><g><path d="M 48.421875 -34.390625 C 52.398438 -33.234375 55.335938 -31.351562 57.234375 -28.75 C 59.128906 -26.15625 60.078125 -22.929688 60.078125 -19.078125 C 60.078125 -15.160156 59.160156 -11.875 57.328125 -9.21875 C 55.492188 -6.5625 53.179688 -4.515625 50.390625 -3.078125 C 47.609375 -1.640625 44.785156 -0.734375 41.921875 -0.359375 C 40.328125 -0.179688 38.875 -0.078125 37.5625 -0.046875 C 36.25 -0.015625 34.582031 0 32.5625 0 L 7.34375 0 L 7.34375 -63.28125 L 33.296875 -63.28125 C 35.003906 -63.28125 36.378906 -63.265625 37.421875 -63.234375 C 38.460938 -63.203125 39.773438 -63.097656 41.359375 -62.921875 C 46.617188 -62.304688 50.65625 -60.5 53.46875 -57.5 C 56.28125 -54.507812 57.6875 -50.9375 57.6875 -46.78125 C 57.6875 -43.90625 56.921875 -41.394531 55.390625 -39.25 C 53.867188 -37.113281 51.546875 -35.492188 48.421875 -34.390625 Z M 23.84375 -50.4375 L 23.84375 -38.34375 L 31.28125 -38.34375 C 32.800781 -38.34375 34.144531 -38.429688 35.3125 -38.609375 C 36.84375 -38.859375 38.082031 -39.410156 39.03125 -40.265625 C 39.976562 -41.117188 40.453125 -42.492188 40.453125 -44.390625 C 40.453125 -46.160156 40.003906 -47.503906 39.109375 -48.421875 C 38.222656 -49.335938 36.988281 -49.921875 35.40625 -50.171875 C 34.238281 -50.347656 32.863281 -50.4375 31.28125 -50.4375 Z M 36.875 -12.9375 C 38.34375 -13.050781 39.703125 -13.675781 40.953125 -14.8125 C 42.203125 -15.945312 42.828125 -17.550781 42.828125 -19.625 C 42.828125 -21.769531 42.1875 -23.390625 40.90625 -24.484375 C 39.625 -25.585938 38.125 -26.203125 36.40625 -26.328125 C 35.800781 -26.390625 35.144531 -26.421875 34.4375 -26.421875 C 33.738281 -26.421875 33.019531 -26.421875 32.28125 -26.421875 L 23.84375 -26.421875 L 23.84375 -12.84375 L 32.75 -12.84375 C 33.476562 -12.84375 34.191406 -12.84375 34.890625 -12.84375 C 35.597656 -12.84375 36.257812 -12.875 36.875 -12.9375 Z M 36.875 -12.9375 "/></g></g></g><g fill="#162124" fill-opacity="1"><g transform="translate(60.256148, 89.042429)"><g><path d="M 13.203125 -68.875 C 15.773438 -68.875 17.835938 -68.15625 19.390625 -66.71875 C 20.953125 -65.28125 21.734375 -63.3125 21.734375 -60.8125 C 21.734375 -58.363281 20.953125 -56.40625 19.390625 -54.9375 C 17.835938 -53.46875 15.773438 -52.734375 13.203125 -52.734375 C 10.640625 -52.734375 8.578125 -53.46875 7.015625 -54.9375 C 5.453125 -56.40625 4.671875 -58.363281 4.671875 -60.8125 C 4.671875 -63.3125 5.453125 -65.28125 7.015625 -66.71875 C 8.578125 -68.15625 10.640625 -68.875 13.203125 -68.875 Z M 21.46875 0 L 4.953125 0 L 4.953125 -48.984375 L 21.46875 -48.984375 Z M 21.46875 0 "/></g></g></g><g fill="#162124" fill-opacity="1"><g transform="translate(83.918016, 89.042429)"><g><path d="M 45.578125 -10.265625 L 45.578125 0 L 3.125 0 L 3.125 -9.625 L 27.875 -38.34375 L 4.5 -38.34375 L 4.5 -48.609375 L 45.3125 -48.609375 L 45.3125 -38.515625 L 20.8125 -10.265625 Z M 45.578125 -10.265625 "/></g></g></g><g fill="#162124" fill-opacity="1"><g transform="translate(129.407435, 89.042429)"><g><path d="M 29.53125 -64.5625 C 35.09375 -64.5625 39.628906 -63.644531 43.140625 -61.8125 C 46.660156 -59.976562 49.335938 -57.488281 51.171875 -54.34375 C 53.015625 -51.195312 54.148438 -47.664062 54.578125 -43.75 L 38.0625 -43.75 C 37.695312 -46.375 36.796875 -48.484375 35.359375 -50.078125 C 33.921875 -51.671875 31.859375 -52.46875 29.171875 -52.46875 C 27.273438 -52.46875 25.742188 -52.007812 24.578125 -51.09375 C 23.421875 -50.175781 22.84375 -48.738281 22.84375 -46.78125 C 22.84375 -44.757812 23.773438 -43.0625 25.640625 -41.6875 C 27.503906 -40.3125 31.035156 -39.007812 36.234375 -37.78125 C 43.203125 -36.132812 48.210938 -33.613281 51.265625 -30.21875 C 54.328125 -26.820312 55.859375 -22.679688 55.859375 -17.796875 C 55.859375 -13.578125 54.664062 -10.0625 52.28125 -7.25 C 49.894531 -4.4375 46.820312 -2.3125 43.0625 -0.875 C 39.300781 0.5625 35.28125 1.28125 31 1.28125 C 22.988281 1.28125 16.460938 -0.382812 11.421875 -3.71875 C 6.378906 -7.050781 3.613281 -12.265625 3.125 -19.359375 L 19.625 -19.359375 C 20.175781 -16.359375 21.519531 -14.1875 23.65625 -12.84375 C 25.800781 -11.5 28.097656 -10.828125 30.546875 -10.828125 C 32.867188 -10.828125 34.789062 -11.375 36.3125 -12.46875 C 37.84375 -13.570312 38.609375 -14.976562 38.609375 -16.6875 C 38.609375 -18.34375 37.890625 -19.859375 36.453125 -21.234375 C 35.015625 -22.609375 32.34375 -23.785156 28.4375 -24.765625 C 23.664062 -25.984375 19.566406 -27.390625 16.140625 -28.984375 C 12.710938 -30.578125 10.097656 -32.671875 8.296875 -35.265625 C 6.492188 -37.859375 5.59375 -41.269531 5.59375 -45.5 C 5.59375 -49.59375 6.707031 -53.046875 8.9375 -55.859375 C 11.175781 -58.671875 14.113281 -60.820312 17.75 -62.3125 C 21.382812 -63.8125 25.3125 -64.5625 29.53125 -64.5625 Z M 29.53125 -64.5625 "/></g></g></g><g fill="#162124" fill-opacity="1"><g transform="translate(184.068119, 89.042429)"><g><path d="M 53.75 -48.984375 L 53.75 0 L 37.234375 0 L 37.234375 -8.25 L 32.828125 -1.5625 C 31.304688 -0.644531 29.65625 0.0546875 27.875 0.546875 C 26.101562 1.035156 24.085938 1.28125 21.828125 1.28125 C 16.816406 1.28125 12.8125 0.0625 9.8125 -2.375 C 6.8125 -4.820312 5.039062 -7.726562 4.5 -11.09375 C 4.3125 -12.320312 4.1875 -13.679688 4.125 -15.171875 C 4.0625 -16.671875 4.03125 -18.398438 4.03125 -20.359375 L 4.03125 -48.984375 L 20.546875 -48.984375 L 20.546875 -24.03125 C 20.546875 -23.238281 20.578125 -22.226562 20.640625 -21 C 20.703125 -19.78125 20.789062 -18.554688 20.90625 -17.328125 C 21.21875 -15.003906 21.96875 -13.1875 23.15625 -11.875 C 24.351562 -10.5625 26.265625 -9.90625 28.890625 -9.90625 C 31.515625 -9.90625 33.5625 -10.988281 35.03125 -13.15625 C 36.5 -15.332031 37.234375 -18.039062 37.234375 -21.28125 L 37.234375 -48.984375 Z M 53.75 -48.984375 "/></g></g></g><g fill="#162124" fill-opacity="1"><g transform="translate(240.012769, 89.042429)"><g><path d="M 13.203125 -68.875 C 15.773438 -68.875 17.835938 -68.15625 19.390625 -66.71875 C 20.953125 -65.28125 21.734375 -63.3125 21.734375 -60.8125 C 21.734375 -58.363281 20.953125 -56.40625 19.390625 -54.9375 C 17.835938 -53.46875 15.773438 -52.734375 13.203125 -52.734375 C 10.640625 -52.734375 8.578125 -53.46875 7.015625 -54.9375 C 5.453125 -56.40625 4.671875 -58.363281 4.671875 -60.8125 C 4.671875 -63.3125 5.453125 -65.28125 7.015625 -66.71875 C 8.578125 -68.15625 10.640625 -68.875 13.203125 -68.875 Z M 21.46875 0 L 4.953125 0 L 4.953125 -48.984375 L 21.46875 -48.984375 Z M 21.46875 0 "/></g></g></g><g fill="#162124" fill-opacity="1"><g transform="translate(263.674637, 89.042429)"><g><path d="M 24.765625 -38.34375 L 24.765625 -20.265625 C 24.765625 -19.472656 24.765625 -18.648438 24.765625 -17.796875 C 24.765625 -16.941406 24.796875 -16.175781 24.859375 -15.5 C 24.984375 -13.851562 25.300781 -12.597656 25.8125 -11.734375 C 26.332031 -10.878906 27.28125 -10.3125 28.65625 -10.03125 C 30.03125 -9.757812 32.003906 -9.6875 34.578125 -9.8125 L 34.578125 0.453125 C 32.984375 0.703125 31.40625 0.898438 29.84375 1.046875 C 28.289062 1.203125 26.628906 1.28125 24.859375 1.28125 C 20.816406 1.28125 17.632812 0.867188 15.3125 0.046875 C 12.988281 -0.773438 11.304688 -2.023438 10.265625 -3.703125 C 9.234375 -5.390625 8.625 -7.488281 8.4375 -10 C 8.375 -11.40625 8.328125 -12.734375 8.296875 -13.984375 C 8.265625 -15.242188 8.25 -16.546875 8.25 -17.890625 L 8.25 -38.34375 L 0.453125 -38.34375 L 0.453125 -48.609375 L 8.25 -48.609375 L 8.25 -61.265625 L 24.765625 -61.265625 L 24.765625 -48.609375 L 35.59375 -48.609375 L 35.59375 -38.34375 Z M 24.765625 -38.34375 "/></g></g></g><g fill="#162124" fill-opacity="1"><g transform="translate(297.608297, 89.042429)"><g><path d="M 52.921875 -25.125 C 52.921875 -23.601562 52.828125 -22.015625 52.640625 -20.359375 L 18.53125 -20.359375 C 18.957031 -16.265625 19.992188 -13.5 21.640625 -12.0625 C 23.296875 -10.625 25.285156 -9.90625 27.609375 -9.90625 C 29.929688 -9.90625 31.796875 -10.453125 33.203125 -11.546875 C 34.609375 -12.648438 35.460938 -14.148438 35.765625 -16.046875 L 52 -16.046875 C 50.59375 -10.484375 47.71875 -6.203125 43.375 -3.203125 C 39.039062 -0.210938 33.722656 1.28125 27.421875 1.28125 C 22.773438 1.28125 18.539062 0.347656 14.71875 -1.515625 C 10.894531 -3.378906 7.851562 -6.207031 5.59375 -10 C 3.332031 -13.789062 2.203125 -18.5625 2.203125 -24.3125 C 2.203125 -29.070312 3.238281 -33.425781 5.3125 -37.375 C 7.394531 -41.320312 10.390625 -44.457031 14.296875 -46.78125 C 18.210938 -49.101562 22.894531 -50.265625 28.34375 -50.265625 C 32.4375 -50.265625 36.007812 -49.5625 39.0625 -48.15625 C 42.125 -46.75 44.675781 -44.851562 46.71875 -42.46875 C 48.769531 -40.082031 50.316406 -37.390625 51.359375 -34.390625 C 52.398438 -31.398438 52.921875 -28.3125 52.921875 -25.125 Z M 27.515625 -39.078125 C 25.378906 -39.078125 23.578125 -38.398438 22.109375 -37.046875 C 20.640625 -35.703125 19.628906 -33.503906 19.078125 -30.453125 L 35.671875 -30.453125 C 34.753906 -36.203125 32.035156 -39.078125 27.515625 -39.078125 Z M 27.515625 -39.078125 "/></g></g></g></g></g><g clip-path="url(#33a4d0dd97)"><path fill="#00aff0" d="M 295.855469 116.582031 L 313.542969 116.582031 L 313.542969 134.273438 L 295.855469 134.273438 Z M 295.855469 116.582031 " fill-opacity="1" fill-rule="nonzero"/><path fill="#070404" d="M 313.542969 134.390625 L 295.855469 134.390625 C 295.785156 134.390625 295.734375 134.339844 295.734375 134.273438 L 295.734375 116.582031 C 295.734375 116.515625 295.785156 116.460938 295.855469 116.460938 L 313.542969 116.460938 C 313.613281 116.460938 313.664062 116.515625 313.664062 116.582031 L 313.664062 134.273438 C 313.664062 134.339844 313.613281 134.390625 313.542969 134.390625 Z M 295.972656 134.152344 L 313.425781 134.152344 L 313.425781 116.699219 L 295.972656 116.699219 Z M 295.972656 134.152344 " fill-opacity="1" fill-rule="nonzero"/></g><g clip-path="url(#f6d04f2661)"><path stroke-linecap="butt" transform="matrix(0.75, 0, 0, 0.75, 295.734389, 116.461709)" fill="none" stroke-linejoin="miter" d="M -0.0000187651 -0.00102841 L -0.0000187651 23.905223 L 23.906233 23.905223 L 23.906233 -0.00102841 L -0.0000187651 -0.00102841 " stroke="#4895ef" stroke-width="2" stroke-opacity="1" stroke-miterlimit="4"/></g><g clip-path="url(#e1324d2f41)"><path fill="#fdd54f" d="M 271.5 116.582031 L 289.1875 116.582031 L 289.1875 134.273438 L 271.5 134.273438 Z M 271.5 116.582031 " fill-opacity="1" fill-rule="nonzero"/><path fill="#070404" d="M 289.1875 134.390625 L 271.5 134.390625 C 271.429688 134.390625 271.378906 134.339844 271.378906 134.273438 L 271.378906 116.582031 C 271.378906 116.515625 271.429688 116.460938 271.5 116.460938 L 289.1875 116.460938 C 289.253906 116.460938 289.308594 116.515625 289.308594 116.582031 L 289.308594 134.273438 C 289.308594 134.339844 289.253906 134.390625 289.1875 134.390625 Z M 271.617188 134.152344 L 289.070312 134.152344 L 289.070312 116.699219 L 271.617188 116.699219 Z M 271.617188 134.152344 " fill-opacity="1" fill-rule="nonzero"/></g><g clip-path="url(#a913986e01)"><path stroke-linecap="butt" transform="matrix(0.75, 0, 0, 0.75, 271.378523, 116.461709)" fill="none" stroke-linejoin="miter" d="M 0.000510607 -0.00102841 L 0.000510607 23.905223 L 23.906762 23.905223 L 23.906762 -0.00102841 L 0.000510607 -0.00102841 " stroke="#f1e218" stroke-width="2" stroke-opacity="1" stroke-miterlimit="4"/></g><g clip-path="url(#14a4836e76)"><path fill="#e96129" d="M 319.921875 116.582031 L 337.613281 116.582031 L 337.613281 134.273438 L 319.921875 134.273438 Z M 319.921875 116.582031 " fill-opacity="1" fill-rule="nonzero"/><path fill="#070404" d="M 337.613281 134.390625 L 319.921875 134.390625 C 319.855469 134.390625 319.804688 134.339844 319.804688 134.273438 L 319.804688 116.582031 C 319.804688 116.515625 319.855469 116.460938 319.921875 116.460938 L 337.613281 116.460938 C 337.679688 116.460938 337.734375 116.515625 337.734375 116.582031 L 337.734375 134.273438 C 337.734375 134.339844 337.679688 134.390625 337.613281 134.390625 Z M 320.042969 134.152344 L 337.492188 134.152344 L 337.492188 116.699219 L 320.042969 116.699219 Z M 320.042969 134.152344 " fill-opacity="1" fill-rule="nonzero"/></g><g clip-path="url(#f9c01a9525)"><path stroke-linecap="butt" transform="matrix(0.75, 0, 0, 0.75, 319.803236, 116.461709)" fill="none" stroke-linejoin="miter" d="M 0.00193471 -0.00102841 L 0.00193471 23.905223 L 23.908186 23.905223 L 23.908186 -0.00102841 L 0.00193471 -0.00102841 " stroke="#f83e03" stroke-width="2" stroke-opacity="1" stroke-miterlimit="4"/></g><g clip-path="url(#e465c359a7)"><path fill="#5ce1e6" d="M 247.429688 116.582031 L 265.121094 116.582031 L 265.121094 134.273438 L 247.429688 134.273438 Z M 247.429688 116.582031 " fill-opacity="1" fill-rule="nonzero"/><path fill="#070404" d="M 265.121094 134.390625 L 247.429688 134.390625 C 247.363281 134.390625 247.308594 134.339844 247.308594 134.273438 L 247.308594 116.582031 C 247.308594 116.515625 247.363281 116.460938 247.429688 116.460938 L 265.121094 116.460938 C 265.1875 116.460938 265.238281 116.515625 265.238281 116.582031 L 265.238281 134.273438 C 265.238281 134.339844 265.1875 134.390625 265.121094 134.390625 Z M 247.546875 134.152344 L 265 134.152344 L 265 116.699219 L 247.546875 116.699219 Z M 247.546875 134.152344 " fill-opacity="1" fill-rule="nonzero"/></g><g clip-path="url(#559554db44)"><path stroke-linecap="butt" transform="matrix(0.75, 0, 0, 0.75, 247.309676, 116.461709)" fill="none" stroke-linejoin="miter" d="M -0.00144286 -0.00102841 L -0.00144286 23.905223 L 23.904809 23.905223 L 23.904809 -0.00102841 L -0.00144286 -0.00102841 " stroke="#5ce1e6" stroke-width="2" stroke-opacity="1" stroke-miterlimit="4"/></g></svg>