<svg xmlns="http://www.w3.org/2000/svg" viewBox="0 0 64 64" role="img" aria-labelledby="title">
  <title id="title">BizSuite favicon</title>
  <rect width="64" height="64" rx="14" fill="#162124"/>
  <path fill="#ffffff" d="M17 14h17.4c4.4 0 7.8 1 10 3.1 2.2 2 3.3 4.8 3.3 8.2 0 3.2-1.5 5.8-4.4 7.6 3.7 1.8 5.6 4.6 5.6 8.5 0 3.6-1.2 6.4-3.6 8.5-2.4 2.1-5.9 3.1-10.4 3.1H17V14Zm10.4 15h6.1c2.6 0 3.9-1.1 3.9-3.2 0-2.2-1.3-3.3-4-3.3h-6v6.5Zm0 15.3h7c2.8 0 4.2-1.2 4.2-3.6 0-2.5-1.4-3.7-4.3-3.7h-6.9v7.3Z"/>
  <rect x="17" y="55" width="7" height="7" rx="1.6" fill="#5ce1e6"/>
  <rect x="28.5" y="55" width="7" height="7" rx="1.6" fill="#fdd54f"/>
  <rect x="40" y="55" width="7" height="7" rx="1.6" fill="#00aeea"/>
  <rect x="51.5" y="55" width="7" height="7" rx="1.6" fill="#e96129"/>
</svg>
